<svg width="69" height="47" viewBox="0 0 69 47" fill="none" xmlns="http://www.w3.org/2000/svg">
<path d="M32.1941 0.137207C32.5872 0.137207 32.9625 0.212597 33.3185 0.363534C33.6744 0.513683 33.9885 0.725845 34.2601 0.998759C34.5317 1.27167 34.743 1.5874 34.893 1.94514C35.0425 2.30273 35.1175 2.67984 35.1175 3.07552V20.8448H33.0375V10.7593H29.7762V20.8448H27.6956V3.07552C27.6956 2.67984 27.7706 2.30273 27.9207 1.94514C28.0709 1.5874 28.2814 1.27167 28.5529 0.998759C28.8252 0.725845 29.1387 0.513683 29.4954 0.363534C29.8512 0.212597 30.2258 0.137207 30.6196 0.137207H32.1941ZM29.7762 8.66852H33.0375V3.07552C33.0375 2.83062 32.9578 2.62774 32.7985 2.46768C32.6391 2.30746 32.4372 2.22797 32.1941 2.22797H30.6196C30.3759 2.22797 30.1746 2.30746 30.0153 2.46768C29.8559 2.62774 29.7762 2.83062 29.7762 3.07552V8.66852ZM35.9542 26.1635C35.561 26.1635 35.1859 26.0881 34.8299 25.9373C34.4739 25.7872 34.1599 25.575 33.8883 25.3019C33.6166 25.029 33.4054 24.7135 33.2554 24.3557C33.106 23.998 33.031 23.621 33.031 23.2252V5.45604H35.1109V15.5414H38.3721V5.45604H40.4527V23.2252C40.4527 23.621 40.3777 23.998 40.2276 24.3557C40.0776 24.7135 39.8671 25.029 39.5955 25.3019C39.3231 25.575 39.0097 25.7872 38.6531 25.9373C38.2971 26.0881 37.9226 26.1635 37.5289 26.1635H35.9542ZM38.3721 17.6322H35.1109V23.2252C35.1109 23.4701 35.1905 23.673 35.3499 23.8332C35.5094 23.9934 35.7112 24.0727 35.9542 24.0727H37.5289C37.7726 24.0727 37.9737 23.9934 38.1331 23.8332C38.2925 23.673 38.3721 23.4701 38.3721 23.2252V17.6322ZM40.4378 2.2083H38.379V0.139568H40.4378V2.2083ZM5.09429 34.0953L3.33229 38.1925H6.85896L5.09429 34.0953ZM5.09429 31.1669L10.135 42.7411H8.70617L7.26728 39.3295H2.93963L1.50058 42.7411H0.0742188L5.09429 31.1669ZM17.3746 39.2827C17.3746 38.4703 17.1677 37.8341 16.7572 37.3744C16.3464 36.9123 15.7755 36.6811 15.0492 36.6811C14.3491 36.6811 13.7961 36.9255 13.3904 37.4109C12.9876 37.8988 12.7859 38.5715 12.7859 39.4282C12.7859 40.1943 12.9851 40.7911 13.3801 41.2224C13.7757 41.6533 14.3231 41.8686 15.0182 41.8686C15.726 41.8686 16.2947 41.6324 16.726 41.1624C17.1574 40.6899 17.3746 40.0643 17.3746 39.2827ZM18.5219 46.1372H17.3435V41.4819C17.0802 41.996 16.7389 42.3853 16.3152 42.645C15.8916 42.9074 15.3902 43.0369 14.8168 43.0369C13.8221 43.0369 13.029 42.6995 12.4347 42.0221C11.8429 41.3442 11.5459 40.4306 11.5459 39.2777C11.5459 38.1483 11.848 37.2393 12.4553 36.5567C13.0598 35.8711 13.8606 35.5287 14.8607 35.5287C15.4004 35.5287 15.8889 35.6637 16.3229 35.9335C16.7547 36.2009 17.1059 36.5877 17.3746 37.0914V35.7778H18.5219V46.1372ZM21.5756 46.1372L23.4538 42.0581L20.7359 35.7778H22.1051L24.1205 40.7782L26.2548 35.7778H27.557L22.9089 46.1372H21.5756ZM29.6498 42.7411V30.9486H30.8589V42.7411H29.6498ZM39.5585 39.3295C39.5585 38.5428 39.344 37.9095 38.9176 37.4318C38.4915 36.9513 37.9359 36.7124 37.2485 36.7124C36.5382 36.7124 35.9827 36.9332 35.585 37.3744C35.1844 37.816 34.9855 38.4312 34.9855 39.2232C34.9855 40.0643 35.1869 40.7136 35.5875 41.1676C35.9878 41.6247 36.5587 41.8532 37.295 41.8532C38.0003 41.8532 38.5558 41.6324 38.9565 41.1886C39.3571 40.7444 39.5585 40.124 39.5585 39.3295ZM40.7058 35.7778V42.7411H39.5585V41.4793C39.2821 41.9856 38.9253 42.3724 38.494 42.6373C38.0626 42.9046 37.5793 43.0369 37.0446 43.0369C36.0525 43.0369 35.2487 42.6945 34.6417 42.0062C34.0344 41.3186 33.7298 40.4096 33.7298 39.2777C33.7298 38.1325 34.0243 37.2214 34.616 36.5438C35.2049 35.8661 35.9955 35.5287 36.9852 35.5287C37.5638 35.5287 38.0678 35.6585 38.494 35.9206C38.9203 36.1829 39.2666 36.5748 39.5274 37.0914V35.7778H40.7058ZM45.1366 39.2827C45.1366 40.0643 45.3509 40.6899 45.7797 41.1624C46.2089 41.6324 46.7773 41.8686 47.485 41.8686C48.175 41.8686 48.7202 41.6533 49.1153 41.2224C49.5108 40.7911 49.7097 40.1943 49.7097 39.4282C49.7097 38.5715 49.5108 37.8988 49.1153 37.4109C48.7202 36.9255 48.1673 36.6811 47.462 36.6811C46.7384 36.6811 46.1727 36.9123 45.7567 37.3744C45.3432 37.8341 45.1366 38.4703 45.1366 39.2827ZM43.9894 46.1372V35.7778H45.121V37.0914C45.3897 36.5877 45.7439 36.2009 46.1804 35.9335C46.6194 35.6637 47.1104 35.5287 47.6506 35.5287C48.6503 35.5287 49.4511 35.8711 50.0557 36.5567C50.6629 37.2393 50.9654 38.1483 50.9654 39.2777C50.9654 40.4306 50.6681 41.3442 50.0767 42.0221C49.4823 42.6995 48.6892 43.0369 47.6946 43.0369C47.1259 43.0369 46.6275 42.9074 46.2037 42.645C45.7797 42.3853 45.4363 41.996 45.1675 41.4819V46.1372H43.9894ZM54.9159 39.2827C54.9159 40.0643 55.1301 40.6899 55.559 41.1624C55.9881 41.6324 56.5563 41.8686 57.2643 41.8686C57.9542 41.8686 58.4994 41.6533 58.8946 41.2224C59.29 40.7911 59.4888 40.1943 59.4888 39.4282C59.4888 38.5715 59.29 37.8988 58.8946 37.4109C58.4994 36.9255 57.9465 36.6811 57.2412 36.6811C56.5176 36.6811 55.9518 36.9123 55.5358 37.3744C55.1224 37.8341 54.9159 38.4703 54.9159 39.2827ZM53.7686 46.1372V35.7778H54.9V37.0914C55.169 36.5877 55.5229 36.2009 55.9594 35.9335C56.3986 35.6637 56.8896 35.5287 57.4298 35.5287C58.4294 35.5287 59.2304 35.8711 59.8349 36.5567C60.442 37.2393 60.7446 38.1483 60.7446 39.2777C60.7446 40.4306 60.4472 41.3442 59.8558 42.0221C59.2615 42.6995 58.4682 43.0369 57.4737 43.0369C56.905 43.0369 56.4066 42.9074 55.9829 42.645C55.559 42.3853 55.2153 41.996 54.9466 41.4819V46.1372H53.7686ZM62.8164 41.5702L63.8319 40.8872C64.023 41.2559 64.2633 41.5312 64.558 41.7155C64.8498 41.9 65.196 41.9935 65.5939 41.9935C65.9814 41.9935 66.2967 41.8973 66.537 41.7053C66.7772 41.5131 66.8963 41.2584 66.8963 40.9446C66.8963 40.7029 66.8134 40.5005 66.6508 40.3371C66.4853 40.1759 66.2037 40.0254 65.8057 39.8904L65.6094 39.8204C63.925 39.2387 63.0826 38.5063 63.0826 37.629C63.0826 37.0113 63.3101 36.505 63.7622 36.1153C64.2168 35.7234 64.806 35.5287 65.5321 35.5287C66.1341 35.5287 66.6483 35.6478 67.0772 35.8896C67.5058 36.131 67.8134 36.471 67.9995 36.9123L67.0408 37.5069C66.8988 37.1876 66.6894 36.9409 66.4157 36.7695C66.1393 36.5958 65.8214 36.51 65.4571 36.51C65.1081 36.51 64.8238 36.6087 64.6046 36.8034C64.3848 36.9981 64.2764 37.2475 64.2764 37.5536C64.2764 37.9794 64.7364 38.3378 65.6533 38.6259C65.8265 38.6829 65.9636 38.7246 66.0641 38.7558C66.8134 38.9999 67.3378 39.2777 67.6325 39.5893C67.927 39.9006 68.0742 40.311 68.0742 40.825C68.0742 41.4819 67.8416 42.0169 67.3741 42.4242C66.9089 42.832 66.2992 43.0369 65.5474 43.0369C64.9015 43.0369 64.3536 42.9151 63.9018 42.6712C63.4521 42.4294 63.0878 42.0607 62.8164 41.5702Z" fill="#060608"/>
</svg>
