<svg width="328" height="328" viewBox="0 0 328 328" fill="none" xmlns="http://www.w3.org/2000/svg">
<g clip-path="url(#clip0_604_10566)">
<path d="M232.746 75.1196C234.841 72.5443 238.46 72.6147 241.478 72.5122C243.329 72.2239 244.591 73.7871 245.975 74.7288C240.581 76.2022 235.238 78.6622 231.356 82.7814C230.843 80.1869 230.786 77.1568 232.746 75.1196Z" fill="#FEECD4" stroke="#FEECD4" stroke-width="0.333333"/>
<path d="M231.355 82.7817C235.238 78.6624 240.58 76.2024 245.974 74.729L245.904 74.9596C244.559 79.207 243.194 83.4735 241.285 87.5095C239.171 92.0067 235.43 95.3828 232.521 99.329C231.945 99.9953 231.362 100.655 230.804 101.334C230.081 95.7863 230.644 90.1809 230.247 84.6074C230.599 83.9924 230.945 83.3646 231.355 82.7817Z" fill="#FECC92" stroke="#FECC92" stroke-width="0.333333"/>
<path d="M241.285 87.5093C243.194 83.4734 244.559 79.2068 245.904 74.9595C246.705 75.8499 246.999 76.9838 246.91 78.1626C246.865 89.0532 246.756 99.9503 246.884 110.841C246.955 112.769 246.666 115.075 244.796 116.1C242.208 117.394 239.197 116.952 236.397 117.061C230.433 116.933 224.456 117.241 218.498 116.895C221.099 116.376 223.751 116.312 226.397 116.434C226.544 116.44 226.833 116.446 226.98 116.446C227.082 112.801 226.769 108.925 228.492 105.569C229.664 103.384 231.157 101.398 232.521 99.3288C235.43 95.3826 239.171 92.0065 241.285 87.5093Z" fill="#F98F60" stroke="#F98F60" stroke-width="0.333333"/>
<path d="M216.377 85.03C218.447 82.0319 222.399 82.9416 225.494 82.8327C227.306 82.6085 228.799 83.704 230.247 84.6072C230.644 90.1807 230.08 95.7861 230.804 101.334C229.382 103.16 227.986 105.088 227.332 107.337C226.551 110.303 226.557 113.391 226.397 116.433C223.751 116.312 221.099 116.376 218.498 116.895C217.646 116.53 216.717 116.382 215.807 116.286C215.231 108.355 215.468 100.392 215.442 92.4549C215.589 89.9757 215.333 87.3427 216.377 85.03Z" fill="#FA9665" stroke="#FA9665" stroke-width="0.333333"/>
<path d="M172.475 85.4273C177.908 83.7041 183.987 88.5408 183.718 94.1783C183.955 97.612 181.796 101.475 178.113 101.853C172.789 102.282 167.427 101.943 162.091 102.122C160.534 102.071 158.343 102.365 157.651 100.559C156.562 97.3942 158.036 93.4095 161.168 92.0001C162.693 91.0328 164.724 91.5389 166.229 90.7125C167.818 88.4575 169.535 85.9334 172.475 85.4273Z" fill="#B5D0EB" stroke="#B5D0EB" stroke-width="0.333333"/>
<path d="M262.253 88.6881C264.719 87.8809 267.512 87.8361 269.927 88.8611C273.592 90.5587 275.981 94.6331 275.783 98.6498C275.309 103.563 270.901 108.073 265.834 107.92C261.106 108.061 256.692 104.479 255.494 99.9759C254.322 95.1904 257.621 90.0718 262.253 88.6881Z" fill="#220154" stroke="#220154" stroke-width="0.333333"/>
<path d="M259.491 91.603C262.675 89.3032 267.083 88.6049 270.561 90.6805C270.395 91.2955 270.228 91.9169 270.068 92.5447C268.46 94.4538 266.134 95.4403 263.86 96.318C262.643 94.5371 261.131 92.9867 259.491 91.603Z" fill="#CDE3F7" stroke="#CDE3F7" stroke-width="0.333333"/>
<path d="M270.562 90.6804C272.644 92.5575 274.546 95.0751 274.412 98.022C274.143 101.706 271.503 104.8 268.275 106.369C268.018 104.697 267.839 103.012 267.653 101.334C268.076 101.174 268.928 100.854 269.351 100.693C267.442 99.8478 265.373 99.5018 263.399 98.8676C263.893 97.3749 265.18 96.5998 266.532 95.9912C266.679 97.0098 266.5 98.3359 267.73 98.7331C267.589 97.8682 267.455 97.0162 267.307 96.1578C268.191 95.2545 269.075 94.3448 269.915 93.4031C269.953 93.1853 270.03 92.756 270.068 92.5446C270.228 91.9168 270.395 91.2954 270.562 90.6804Z" fill="#B7D6F3" stroke="#B7D6F3" stroke-width="0.333333"/>
<path d="M208.171 92.8587C210.413 91.6799 213.046 91.9682 215.442 92.4551C215.468 100.392 215.231 108.355 215.807 116.286C215.807 116.511 215.82 116.965 215.82 117.19C213.597 116.837 211.349 116.818 209.1 116.85C209.119 113.243 209.939 109.233 207.902 105.998C206.345 103.64 204.962 101.161 203.219 98.9382C203.892 101.488 205.442 103.647 206.73 105.908C208.6 109.233 208.139 113.179 208.133 116.844C204.526 116.869 200.913 117.004 197.313 116.863C195.66 116.921 194.347 115.428 193.783 114.012C193.475 110.835 193.744 107.625 193.712 104.435C193.815 102.007 193.386 99.4379 194.526 97.1893C197.351 96.7216 200.247 96.1451 203.104 96.728C204.129 96.8113 204.68 97.7274 205.32 98.4065C206.025 96.4782 206.435 94.1719 208.171 92.8587Z" fill="#FCCA8A" stroke="#FCCA8A" stroke-width="0.333333"/>
<path d="M256.493 99.2329C255.917 96.4205 257.236 93.6466 259.299 91.7888C260.465 93.4032 261.907 94.7998 263.105 96.3949C263.982 97.8043 261.106 100.284 263.258 100.886C264.552 100.123 267.051 99.3738 267.653 101.334C267.839 103.013 268.018 104.697 268.274 106.369C263.156 107.913 257.57 104.364 256.493 99.2329Z" fill="#C9E3F7" stroke="#C9E3F7" stroke-width="0.333333"/>
<path d="M203.219 98.9382C204.961 101.161 206.345 103.64 207.902 105.998C209.939 109.233 209.119 113.243 209.1 116.85L208.132 116.844C208.139 113.179 208.6 109.233 206.729 105.908C205.442 103.647 203.891 101.488 203.219 98.9382Z" fill="#BE7771" stroke="#BE7771" stroke-width="0.333333"/>
<path d="M230.804 101.334C231.361 100.655 231.944 99.9951 232.521 99.3289C231.156 101.398 229.664 103.384 228.491 105.569C226.768 108.925 227.082 112.801 226.979 116.446C226.832 116.446 226.544 116.44 226.396 116.434C226.557 113.391 226.55 110.303 227.332 107.337C227.985 105.088 229.382 103.16 230.804 101.334Z" fill="#030346" stroke="#030346" stroke-width="0.333333"/>
<path d="M109.912 110.027C111.046 109.329 111.027 112.487 109.899 111.629C108.983 111.533 108.881 110.027 109.912 110.027Z" fill="#0E1B7A" stroke="#0E1B7A" stroke-width="0.333333"/>
<path d="M143.66 111.059C144.717 111.193 145.774 111.315 146.831 111.469C146.088 112.468 144.813 112.218 143.737 112.302C143.718 111.994 143.679 111.373 143.66 111.059Z" fill="#0D146C" stroke="#0D146C" stroke-width="0.333333"/>
<path d="M150.15 111.245C151.098 111.257 152.046 111.27 153.001 111.283C152.988 111.52 152.949 111.988 152.937 112.225C152.001 112.225 151.072 112.231 150.144 112.238C150.144 111.988 150.15 111.488 150.15 111.245Z" fill="#091360" stroke="#091360" stroke-width="0.333333"/>
<path d="M156.761 112.045C157.248 110.899 160.137 110.482 160.034 112.045C158.958 112.314 157.843 112.18 156.761 112.045Z" fill="#220154" stroke="#220154" stroke-width="0.333333"/>
<path d="M163.692 111.206C164.878 111.341 166.723 110.495 167.19 112.071C166.108 112.141 165.018 112.193 163.936 112.244C163.878 111.981 163.756 111.462 163.692 111.206Z" fill="#101F6E" stroke="#101F6E" stroke-width="0.333333"/>
<path d="M170.516 112.045C170.759 110.444 173.238 110.995 174.193 111.802C172.982 112.013 171.733 112.404 170.516 112.045Z" fill="#101F6E" stroke="#101F6E" stroke-width="0.333333"/>
<path d="M176.832 111.616C178.35 111.014 179.99 111.11 181.592 111.181C181.547 111.443 181.47 111.975 181.425 112.244C179.881 112.206 178.209 112.5 176.832 111.616Z" fill="#060F72" stroke="#060F72" stroke-width="0.333333"/>
<path d="M186.486 112.302C186.871 110.802 189.837 110.649 190.176 112.257C188.94 112.302 187.71 112.302 186.486 112.302Z" fill="#06185C" stroke="#06185C" stroke-width="0.333333"/>
<path d="M250.305 111.136C251.119 111.296 252.124 111.334 252.156 112.404C251.426 112.513 250.689 112.609 249.959 112.699C250.049 112.308 250.222 111.527 250.305 111.136Z" fill="#101F6E" stroke="#101F6E" stroke-width="0.333333"/>
<path d="M216.281 114.787C216.326 113.397 216.896 112.603 218.331 112.609C218.331 113.115 218.331 114.127 218.331 114.634C217.819 114.672 216.794 114.749 216.281 114.787Z" fill="#F8CCB6" stroke="#F8CCB6" stroke-width="0.333333"/>
<path d="M108.996 117.177C108.695 115.691 110.297 116.299 111.193 116.107C111.136 116.459 111.027 117.158 110.976 117.503C110.322 117.388 109.566 117.561 108.996 117.177Z" fill="#220154" stroke="#220154" stroke-width="0.333333"/>
<path d="M215.807 116.286C216.717 116.382 217.646 116.53 218.498 116.895C218.587 117.145 218.76 117.638 218.844 117.881C217.658 118.182 216.377 118.413 215.653 119.502C215.737 118.733 215.801 117.958 215.82 117.189C215.82 116.965 215.807 116.51 215.807 116.286Z" fill="#F84C39" stroke="#F84C39" stroke-width="0.333333"/>
<path d="M215.653 119.502C216.377 118.413 217.658 118.182 218.844 117.881C219.01 118.58 219.343 119.976 219.51 120.674C218.165 120.457 216.051 121.411 215.653 119.502Z" fill="#7962A0" stroke="#7962A0" stroke-width="0.333333"/>
<path d="M108.727 122.949C109.188 122.628 109.662 122.327 110.143 122.039C110.367 122.218 110.822 122.584 111.046 122.763C111.008 123.026 110.931 123.545 110.892 123.807C110.143 124.019 108.554 124.108 108.727 122.949Z" fill="#101F6E" stroke="#101F6E" stroke-width="0.333333"/>
<path d="M216.076 121.52C217.345 121.411 218.619 121.315 219.894 121.219C221.252 125.883 222.63 130.617 225.301 134.736C224.014 134.8 222.726 134.884 221.438 134.967C221.438 136.517 221.176 138.055 220.509 139.47C217.812 133.891 216.608 127.651 216.076 121.52Z" fill="#F2394E" stroke="#F2394E" stroke-width="0.333333"/>
<path d="M231.881 123.301C234.251 122.263 237.473 122.66 238.14 125.588C238.274 125.915 238.543 126.568 238.678 126.895C238.537 127.074 238.248 127.44 238.108 127.619C238.389 128.368 238.678 129.118 238.972 129.867C238.12 129.291 237.294 128.657 236.365 128.215C234.731 128.202 233.828 129.733 232.675 130.623C230.542 131.04 230.888 133.429 230.926 135.095C231.009 132.853 230.721 130.649 230.407 128.445C231.067 127.331 232.483 126.837 233.053 125.639C232.746 124.819 232.297 124.063 231.881 123.301Z" fill="#050C7D" stroke="#050C7D" stroke-width="0.333333"/>
<path d="M289.736 124.538C292.221 122.942 295.796 124.723 296.328 127.536C297.161 131.2 291.984 133.75 289.223 131.546C286.642 129.983 287.192 125.851 289.736 124.538Z" fill="#101F6E" stroke="#101F6E" stroke-width="0.333333"/>
<path d="M121.123 127.446C121.315 125.819 122.987 125.165 124.262 124.544C125.639 125.223 126.946 126.043 128.137 127.023C130.546 127.068 132.961 127.1 135.376 127.26C136.869 130.194 134.473 132.917 132.776 135.133C131.347 134.595 129.957 133.859 129.323 132.392C131.219 131.706 133.634 131.232 133.999 128.868C130.719 129.291 127.439 130.246 125.139 132.763C124.383 132.77 123.666 132.507 122.968 132.27C122.301 130.681 120.956 129.278 121.123 127.446Z" fill="#070775" stroke="#070775" stroke-width="0.333333"/>
<path d="M238.139 125.588C241.214 125.095 243.841 129.694 241.253 131.751C240.26 132.878 239.26 134.121 237.781 134.621L237.556 134.326C237.512 134.262 237.422 134.134 237.377 134.07C236.864 133.314 236.378 132.571 235.923 131.789C235.795 131.546 235.545 131.065 235.417 130.822C235.064 130.822 234.353 130.822 233.994 130.822L232.675 130.623C233.828 129.733 234.731 128.202 236.365 128.215C237.294 128.657 238.12 129.291 238.972 129.867C238.677 129.118 238.389 128.368 238.107 127.619C238.248 127.439 238.537 127.074 238.677 126.895C238.543 126.568 238.274 125.915 238.139 125.588Z" fill="#04085D" stroke="#04085D" stroke-width="0.333333"/>
<path d="M273.201 125.735C273.502 126.152 273.81 126.568 274.124 126.991C276.155 126.946 278.192 127.004 280.223 127.151C279.678 132.404 278.435 138.17 274.047 141.61C273.81 142.18 273.586 142.75 273.355 143.327C272.003 141.367 270.44 139.56 269.217 137.529C267.481 134.403 266.577 130.886 266.347 127.337C268.179 127.228 270.005 127.132 271.843 127.049C272.292 126.613 272.747 126.171 273.201 125.735Z" fill="#0E1B7A" stroke="#0E1B7A" stroke-width="0.333333"/>
<path d="M290.447 127.074C291.312 125.889 292.83 126.716 293.81 127.299C293.644 128.298 293.33 129.746 292.029 129.701C290.697 129.944 289.198 128.151 290.447 127.074Z" fill="#DAD6E0" stroke="#DAD6E0" stroke-width="0.333333"/>
<path d="M109.111 128.298C110.264 128.138 111.027 128.65 111.398 129.727C110.662 129.848 109.919 129.893 109.182 129.848C109.163 129.458 109.131 128.682 109.111 128.298Z" fill="#1E2F74" stroke="#1E2F74" stroke-width="0.333333"/>
<path d="M267.263 128.08C271.164 128.144 275.194 127.491 279.005 128.433C278.967 128.862 278.884 129.72 278.839 130.143C275.053 129.829 271.228 129.874 267.461 130.374C267.391 129.611 267.327 128.843 267.263 128.08Z" fill="#E7EAF3" stroke="#E7EAF3" stroke-width="0.333333"/>
<path d="M125.14 132.763C127.439 130.246 130.719 129.291 133.999 128.868C133.634 131.232 131.219 131.706 129.323 132.392C129.957 133.859 131.347 134.595 132.776 135.133C132.219 135.556 131.668 135.992 131.123 136.428C128.823 135.537 127.952 132.238 125.14 132.763Z" fill="#030346" stroke="#030346" stroke-width="0.333333"/>
<path d="M231.298 129.163C232.899 128.772 231.733 130.931 231.003 129.669L231.298 129.163Z" fill="#E0CCE8" stroke="#E0CCE8" stroke-width="0.333333"/>
<path d="M267.461 130.374C271.228 129.874 275.052 129.829 278.838 130.143C278.87 130.386 278.928 130.86 278.96 131.097C277.82 131.091 276.686 131.072 275.558 131.129C275.277 131.405 274.713 131.956 274.431 132.231C274.207 132.219 273.752 132.199 273.521 132.187C273.066 131.668 272.624 131.136 272.195 130.604C272.131 130.822 271.997 131.27 271.926 131.495C270.453 131.206 269.005 130.822 267.563 130.406L267.461 130.374Z" fill="#8D9DCD" stroke="#8D9DCD" stroke-width="0.333333"/>
<path d="M230.926 135.095C230.888 133.429 230.542 131.04 232.675 130.624L233.995 130.822C233.463 131.213 232.938 131.61 232.419 132.014C233.502 133.18 234.783 134.16 236.333 134.602C236.218 133.66 236.09 132.718 235.923 131.789C236.378 132.571 236.865 133.314 237.377 134.07C237.422 134.134 237.512 134.262 237.557 134.326L237.781 134.621L237.922 135.287C236.244 136.601 234.174 137.203 232.227 137.997C231.778 137.036 231.317 136.075 230.926 135.095Z" fill="#FB918A" stroke="#FB918A" stroke-width="0.333333"/>
<path d="M233.995 130.822C234.354 130.822 235.065 130.822 235.417 130.822C235.545 131.065 235.795 131.546 235.923 131.789C236.09 132.718 236.218 133.66 236.333 134.602C234.783 134.16 233.502 133.18 232.419 132.014C232.938 131.61 233.463 131.213 233.995 130.822Z" fill="#EAD9E7" stroke="#EAD9E7" stroke-width="0.333333"/>
<path d="M267.563 130.406C269.005 130.822 270.453 131.206 271.926 131.495C272.375 133.436 272.644 135.409 272.624 137.401C272.996 137.484 273.739 137.638 274.111 137.715C273.675 136.088 273.374 134.429 273.271 132.744C273.97 132.693 275.373 132.584 276.071 132.532C275.661 132.456 274.841 132.302 274.431 132.231C274.713 131.956 275.277 131.405 275.558 131.129C276.686 131.072 277.82 131.091 278.96 131.097C277.839 134.832 276.25 138.606 272.842 140.816C269.761 138.221 268.249 134.275 267.563 130.406Z" fill="#F6F7F8" stroke="#F6F7F8" stroke-width="0.333333"/>
<path d="M271.926 131.495C271.996 131.27 272.131 130.822 272.195 130.604C272.624 131.136 273.066 131.668 273.521 132.187C273.752 132.199 274.206 132.219 274.431 132.231C274.841 132.302 275.661 132.456 276.071 132.533C275.372 132.584 273.969 132.693 273.271 132.744C273.374 134.429 273.675 136.088 274.11 137.715C273.739 137.638 272.996 137.485 272.624 137.401C272.643 135.409 272.374 133.436 271.926 131.495Z" fill="#000883" stroke="#000883" stroke-width="0.333333"/>
<path d="M122.09 131.956L122.967 132.27C123.666 132.507 124.383 132.769 125.139 132.763C127.952 132.238 128.823 135.537 131.123 136.427C130.956 136.594 130.61 136.933 130.437 137.1C130.431 138.394 130.412 139.695 130.392 140.995L130.136 140.937C129.066 140.7 127.996 140.489 126.914 140.31C126.529 139.829 126.376 139.118 125.767 138.855C125.325 139.086 124.447 139.554 124.005 139.791C122.878 137.363 122.666 134.557 122.09 131.956Z" fill="#F1B3AC" stroke="#F1B3AC" stroke-width="0.333333"/>
<path d="M109.169 134.698C109.951 134 110.783 134.736 111.482 135.127C110.88 136.235 108.625 136.402 109.169 134.698Z" fill="#0E1B7A" stroke="#0E1B7A" stroke-width="0.333333"/>
<path d="M237.377 134.07C237.422 134.134 237.511 134.262 237.556 134.326" stroke="#932745" stroke-width="0.333333"/>
<path d="M221.439 134.967C222.726 134.883 224.014 134.8 225.302 134.736L225.404 134.73C226.762 136.447 228.518 137.805 230.516 138.695C231.887 139.253 233.361 139.445 234.828 139.496C234.77 140.976 233.675 142.026 232.938 143.205C232.015 144.653 231.202 146.178 230.061 147.472L229.773 147.382C225.949 145.902 222.617 142.994 220.51 139.47C221.176 138.055 221.439 136.517 221.439 134.967Z" fill="#F44649" stroke="#F44649" stroke-width="0.333333"/>
<path d="M232.226 137.997C234.174 137.203 236.243 136.6 237.921 135.287C238.62 136.389 239.228 137.542 239.805 138.714C238.165 139.086 236.512 139.419 234.827 139.496C233.36 139.445 231.887 139.253 230.516 138.695C230.945 138.522 231.797 138.17 232.226 137.997Z" fill="#FBADA9" stroke="#FBADA9" stroke-width="0.333333"/>
<path d="M179.938 139.451C180.579 137.888 181.899 136.242 183.795 136.613C185.794 136.216 185.928 138.651 187.036 139.612C187.991 139.592 188.939 139.432 189.887 139.304C189.887 139.605 189.874 140.207 189.868 140.508C188.952 140.508 188.029 140.483 187.113 140.566C185.736 140.95 184.756 142.43 183.193 142.136C181.604 142.36 180.541 141.021 179.394 140.188C178.83 140.169 177.696 140.143 177.126 140.13C177.741 139.08 178.952 139.503 179.938 139.451Z" fill="#1E2F74" stroke="#1E2F74" stroke-width="0.333333"/>
<path d="M182.636 137.139C184.225 136.511 186.07 137.997 185.98 139.663C185.429 141.578 182.86 142.084 181.367 140.989C179.868 139.842 181.175 137.613 182.636 137.139Z" fill="#FEFEFC" stroke="#FEFEFC" stroke-width="0.333333"/>
<path d="M239.805 138.715C239.991 138.721 240.356 138.734 240.542 138.74C242.733 140.745 244.347 143.474 244.789 146.434C245.481 151.995 244.886 157.619 245.36 163.186C243.182 166.492 238.793 166.697 235.231 166.947C235.443 163.712 235.456 160.47 235.308 157.229C235.295 154.801 235.667 152.334 235.193 149.926C234.187 148.132 231.804 148.093 230.062 147.472C231.202 146.178 232.015 144.653 232.938 143.205C233.675 142.027 234.77 140.976 234.828 139.496C236.513 139.419 238.165 139.086 239.805 138.715Z" fill="#F7544D" stroke="#F7544D" stroke-width="0.333333"/>
<path d="M124.006 139.791C124.448 139.554 125.326 139.086 125.768 138.855C126.376 139.118 126.53 139.829 126.914 140.31C127.997 140.489 129.067 140.7 130.137 140.938C129.816 141.77 129.06 142.61 128.061 142.289C127.203 142.193 126.351 142.071 125.499 142.001C125.012 141.251 124.512 140.515 124.006 139.791Z" fill="#C89FA9" stroke="#C89FA9" stroke-width="0.333333"/>
<path d="M119.49 145.121C121.258 143.692 123.417 142.859 125.499 142.001C126.351 142.071 127.203 142.193 128.061 142.289C128.273 142.315 128.695 142.366 128.907 142.392C130.079 145.223 129.535 148.298 129.336 151.252C129.195 153.193 128.862 155.121 128.401 157.017C128.164 156.351 127.933 155.685 127.696 155.018C127.51 155.871 127.331 156.723 127.158 157.575C126.863 154.378 125.62 151.418 124.461 148.458C122.552 149.829 120.387 151.027 119.067 153.045C117.863 154.916 116.959 156.953 115.857 158.888C114.153 159.394 112.513 160.079 110.86 160.707C108.362 159.381 105.39 158.741 103.32 156.748C105.575 156.652 107.882 157.466 110.098 157.036C113.666 153.423 115.729 148.567 119.49 145.121Z" fill="#02A2BA" stroke="#02A2BA" stroke-width="0.333333"/>
<path d="M128.907 142.392C130.886 143.192 133.455 143.231 134.82 145.108C136.62 147.683 137.395 150.784 138.151 153.788C138.99 157.344 139.778 161.168 138.567 164.737C137.901 166.934 136.421 168.734 134.903 170.4C134.903 171.931 134.928 173.455 134.89 174.987L134.518 175.063C131.616 175.377 128.695 175.326 125.793 175.115C124.915 168.92 127.01 162.962 128.4 157.017C128.862 155.121 129.195 153.193 129.336 151.251C129.534 148.298 130.079 145.223 128.907 142.392Z" fill="#0BB7CB" stroke="#0BB7CB" stroke-width="0.333333"/>
<path d="M229.773 147.382L230.062 147.472C231.804 148.093 234.187 148.132 235.193 149.925C235.667 152.334 235.296 154.801 235.308 157.228C234.905 156.415 234.469 155.621 234.034 154.826C231.887 154.013 230.549 152.11 229.511 150.162C229.556 149.227 229.626 148.305 229.773 147.382Z" fill="#CB1E43" stroke="#CB1E43" stroke-width="0.333333"/>
<path d="M119.067 153.045C120.386 151.027 122.552 149.829 124.461 148.458C125.62 151.418 126.863 154.378 127.158 157.575C127.331 156.723 127.51 155.871 127.696 155.018C127.933 155.685 128.163 156.351 128.401 157.017C127.01 162.962 124.916 168.92 125.793 175.115C122.013 174.955 118.247 174.269 114.8 172.668C114.89 168.978 114.986 165.294 115.14 161.611C113.846 162.975 112.327 164.724 110.226 164.378C105.915 163.661 101.699 162.456 97.516 161.233V160.784C97.5288 159.49 97.5672 158.19 97.5993 156.896C95.6389 156.767 93.6658 156.703 91.7119 156.511C95.5877 156.293 99.4443 156.812 103.32 156.748C105.389 158.741 108.362 159.381 110.86 160.707C112.513 160.079 114.153 159.394 115.857 158.888C116.959 156.953 117.862 154.916 119.067 153.045Z" fill="#0596B4" stroke="#0596B4" stroke-width="0.333333"/>
<path d="M229.51 150.163C230.548 152.11 231.887 154.013 234.033 154.826C234.469 155.621 234.904 156.415 235.308 157.229C235.455 160.47 235.442 163.712 235.231 166.947C233.252 166.819 231.323 166.326 229.44 165.736C228.818 160.586 228.248 155.262 229.51 150.163Z" fill="#DB2446" stroke="#DB2446" stroke-width="0.333333"/>
<path d="M49.5331 153.218C50.9233 152.513 52.5377 151.431 54.1264 152.264C54.8503 153.455 54.4019 154.845 54.2097 156.114C52.4992 156.748 52.3775 158.593 52.1725 160.143C51.6664 159.823 51.1603 159.496 50.6606 159.176C49.4691 159.202 48.2711 159.221 47.0859 159.343C46.4966 158.535 45.9264 157.728 45.3691 156.908C44.7989 155.678 44.4658 153.692 45.8623 152.885C47.0411 152.187 48.4377 152.565 49.5331 153.218Z" fill="#040063" stroke="#040063" stroke-width="0.333333"/>
<path d="M62.4736 154.262C62.8324 154.262 63.5499 154.262 63.9022 154.262C63.851 154.865 63.8318 155.48 63.8382 156.088C63.2872 155.941 62.7235 155.832 62.1533 155.781C62.2302 155.396 62.3968 154.64 62.4736 154.262Z" fill="#0F0D63" stroke="#0F0D63" stroke-width="0.333333"/>
<path d="M67.2783 155.127C67.6883 154.768 68.0919 154.41 68.5019 154.057C68.8286 154.218 69.4693 154.531 69.796 154.692C69.386 156.133 68.22 156.095 67.2783 155.127Z" fill="#220154" stroke="#220154" stroke-width="0.333333"/>
<path d="M72.8643 154.531C73.3768 154.551 74.3954 154.583 74.9079 154.602C74.6324 155.127 74.8246 156.223 73.9277 156.101C73.428 155.697 73.0757 155.179 72.8643 154.531Z" fill="#101F6E" stroke="#101F6E" stroke-width="0.333333"/>
<path d="M48.1048 156.556C48.7198 155.781 50.5648 156.53 49.8025 157.523C49.1811 158.298 47.3233 157.549 48.1048 156.556Z" fill="#39329E" stroke="#39329E" stroke-width="0.333333"/>
<path d="M84.998 156.486C86.5035 156.268 88.0218 156.325 89.5401 156.37C88.8802 156.735 88.5856 157.318 88.6688 158.106C88.6624 157.876 88.656 157.408 88.6496 157.177C87.3748 157.293 86.0487 157.338 84.998 156.486Z" fill="#1E2F74" stroke="#1E2F74" stroke-width="0.333333"/>
<path d="M89.5403 156.37C90.0848 156.402 91.1739 156.473 91.712 156.511C93.6659 156.703 95.6391 156.767 97.5994 156.895C97.5673 158.189 97.5289 159.49 97.5161 160.784C94.4667 160.31 91.4237 159.535 88.6691 158.106C88.5858 157.318 88.8805 156.735 89.5403 156.37Z" fill="#FC5537" stroke="#FC5537" stroke-width="0.333333"/>
<path d="M42.5371 160.092C43.2738 158.856 44.1835 157.741 45.3687 156.908C45.926 157.728 46.4962 158.535 47.0855 159.343C46.9254 159.368 46.6115 159.432 46.4513 159.458L46.0157 160.034C45.2598 160.893 44.8946 162.296 43.6582 162.584C43.2866 161.751 42.9343 160.912 42.5371 160.092Z" fill="#060CB2" stroke="#060CB2" stroke-width="0.333333"/>
<path d="M47.0864 159.343C48.2715 159.221 49.4695 159.202 50.6611 159.176C51.1607 159.496 51.6668 159.823 52.1729 160.143L52.3843 160.278C51.3209 161.45 50.9557 162.904 51.4618 164.423C51.0967 165.153 50.2254 165.755 50.4368 166.671L50.4945 167.222L50.2639 167.177C49.2709 166.851 48.2651 166.505 47.3618 165.96C46.5803 163.891 46.6123 161.636 46.4521 159.458C46.6123 159.432 46.9262 159.368 47.0864 159.343Z" fill="#D08495" stroke="#D08495" stroke-width="0.333333"/>
<path d="M46.0157 160.035L46.4513 159.458C46.6115 161.636 46.5795 163.891 47.361 165.96C48.2643 166.505 49.2701 166.851 50.263 167.178C48.5013 167.037 46.746 167.344 45.042 167.773C45.4007 167.075 45.7787 166.396 46.1502 165.717L46.1118 165.698C45.0548 165.192 43.6902 164.929 43.1073 163.776C42.3962 162.687 42.6716 161.322 42.5371 160.092C42.9343 160.912 43.2866 161.751 43.6582 162.584C44.8946 162.296 45.2598 160.893 46.0157 160.035Z" fill="#000072" stroke="#000072" stroke-width="0.333333"/>
<path d="M68.7322 159.926C69.5714 159.887 69.9045 160.675 69.7764 161.425C69.155 161.668 68.4759 161.713 67.8225 161.591C67.2716 160.88 67.9698 159.99 68.7322 159.926Z" fill="#101F6E" stroke="#101F6E" stroke-width="0.333333"/>
<path d="M62.4029 160.316C62.9922 159.285 64.6322 160.329 63.8763 161.284C63.2741 162.277 61.5957 161.277 62.4029 160.316Z" fill="#0D1B5F" stroke="#0D1B5F" stroke-width="0.333333"/>
<path d="M73.8956 160.374C74.28 160.323 75.0488 160.227 75.4396 160.182C75.3691 160.605 75.2345 161.444 75.1705 161.867C74.4402 162.014 72.5439 161.111 73.8956 160.374Z" fill="#220154" stroke="#220154" stroke-width="0.333333"/>
<path d="M78.9824 160.438C79.6551 160.413 80.3341 160.4 81.0196 160.387C80.8659 160.848 80.7121 161.309 80.5648 161.777C80.1996 161.751 79.4693 161.707 79.0977 161.687C79.0721 161.374 79.008 160.746 78.9824 160.438Z" fill="#000883" stroke="#000883" stroke-width="0.333333"/>
<path d="M51.4612 164.423C50.9552 162.905 51.3203 161.45 52.3837 160.278C52.7809 161.758 52.8962 163.449 51.4612 164.423Z" fill="#544592" stroke="#544592" stroke-width="0.333333"/>
<path d="M235.231 166.947C238.793 166.697 243.182 166.492 245.36 163.186C245.507 163.43 245.802 163.91 245.949 164.154C245.02 166.242 244.309 168.42 243.675 170.618C242.72 174.026 240.709 176.998 239.562 180.342C237.262 186.345 236.077 192.687 234.636 198.933C233.188 207.55 231.304 216.076 229.498 224.622C228.492 224.52 227.499 224.424 226.5 224.34C226.135 215.115 225.686 205.897 225.833 196.665C225.955 189.618 225.757 182.546 226.628 175.538C227.044 172.136 228.627 169.042 229.44 165.736C231.324 166.325 233.252 166.819 235.231 166.947Z" fill="#060951" stroke="#060951" stroke-width="0.333333"/>
<path d="M243.674 170.618C244.309 168.42 245.02 166.242 245.949 164.154C249.818 171.656 251.343 180.221 256.013 187.332C258.114 190.727 260.811 193.699 263.104 196.96C262.336 196.755 261.573 196.563 260.811 196.371C260.299 196.806 259.786 197.242 259.28 197.691C258.671 197.338 258.063 196.992 257.467 196.653C256.602 197.146 255.744 197.646 254.892 198.145C251.266 194.455 247.185 191.182 244.072 187.024C242.419 184.897 241.099 182.546 239.562 180.342C240.708 176.998 242.72 174.026 243.674 170.618Z" fill="#000039" stroke="#000039" stroke-width="0.333333"/>
<path d="M46.1122 165.698L46.1506 165.717C45.779 166.396 45.4011 167.075 45.0423 167.773C45.5548 170.406 48.5786 172.136 51.0001 170.701C50.8272 169.535 50.6478 168.382 50.494 167.222L50.4364 166.672C51.8458 167.921 53.7164 168.337 55.5357 168.561V168.638C55.8625 173.622 55.7215 178.613 55.3307 183.584C55.3179 183.77 55.2923 184.148 55.2795 184.334C51.5959 183.795 47.8675 183.526 44.1454 183.693C42.6015 183.731 41.2754 184.609 40.0775 185.487C39.8276 185.743 39.3343 186.262 39.0909 186.524C38.9564 186.39 38.6937 186.114 38.5656 185.98C37.7776 185.064 37.6815 183.776 37.4957 182.629C37.0473 178.485 37.1114 173.872 39.8084 170.445C41.474 168.26 44.9078 168.312 46.1122 165.698Z" fill="#FC593C" stroke="#FC593C" stroke-width="0.333333"/>
<path d="M202.585 165.332C203.495 165.018 203.789 165.313 203.462 166.216C202.546 166.524 202.252 166.229 202.585 165.332Z" fill="#A7C2DD" stroke="#A7C2DD" stroke-width="0.333333"/>
<path d="M208.94 165.313C209.497 164.532 211.118 165.307 210.426 166.197C209.862 166.979 208.248 166.21 208.94 165.313Z" fill="#ACC4EC" stroke="#ACC4EC" stroke-width="0.333333"/>
<path d="M73.1465 166.768C73.8768 166.78 74.6071 166.793 75.3374 166.812C75.2926 167.133 75.2093 167.786 75.1645 168.113C74.4982 168.203 73.832 168.286 73.1721 168.363C73.1657 167.966 73.1529 167.171 73.1465 166.768Z" fill="#091360" stroke="#091360" stroke-width="0.333333"/>
<path d="M78.6875 167.094C79.6869 166.921 80.6991 166.819 81.7113 166.729C81.5255 167.293 81.3333 167.856 81.1411 168.42C80.193 168.234 79.2705 167.908 78.6875 167.094Z" fill="#1E2F74" stroke="#1E2F74" stroke-width="0.333333"/>
<path d="M45.042 167.773C46.7461 167.344 48.5014 167.036 50.2631 167.177L50.4937 167.222C50.6475 168.382 50.8268 169.535 50.9998 170.701C48.5782 172.136 45.5545 170.406 45.042 167.773Z" fill="#0E1B7A" stroke="#0E1B7A" stroke-width="0.333333"/>
<path d="M55.3311 183.584C55.7218 178.613 55.8628 173.622 55.5361 168.638C57.8231 169.394 59.1812 171.476 60.5073 173.334C62.41 176.191 64.4087 179.369 63.909 182.975C63.8642 183.142 63.7745 183.481 63.7296 183.654C60.9301 183.578 58.1306 183.469 55.3311 183.584Z" fill="#F84C39" stroke="#F84C39" stroke-width="0.333333"/>
<path d="M196.877 172.033C196.64 170.746 198.037 170.81 198.895 170.727C199.113 171.937 197.921 173.34 196.877 172.033Z" fill="#091360" stroke="#091360" stroke-width="0.333333"/>
<path d="M202.04 170.669C203.148 170.868 203.782 171.483 203.558 172.661C202.034 172.969 201.79 171.976 202.04 170.669Z" fill="#220154" stroke="#220154" stroke-width="0.333333"/>
<path d="M206.794 170.887C207.576 170.861 208.351 170.842 209.132 170.829C209.164 171.156 209.216 171.816 209.241 172.142C208.351 172.078 207.46 172.046 206.576 172.098C206.627 171.79 206.743 171.188 206.794 170.887Z" fill="#04085D" stroke="#04085D" stroke-width="0.333333"/>
<path d="M212.104 170.56C212.553 170.573 213.463 170.599 213.911 170.611C214.058 171.72 213.539 173.135 212.22 172.226C212.188 171.809 212.13 170.976 212.104 170.56Z" fill="#0E1B7A" stroke="#0E1B7A" stroke-width="0.333333"/>
<path d="M114.8 172.668C118.246 174.269 122.013 174.955 125.793 175.115C128.695 175.326 131.616 175.378 134.518 175.064C133.762 175.256 133.019 175.48 132.276 175.698C131.008 180.701 128.926 185.448 127.702 190.464C126.959 193.475 126.331 196.518 125.722 199.568C123.974 208.005 123.32 216.666 121.257 225.026L120.642 225.622C120.553 225.615 120.36 225.603 120.264 225.59L119.592 225.519C118.925 223.508 118.362 221.464 118.054 219.369C116.152 207.402 115.357 195.295 114.678 183.212C114.415 179.702 114.512 176.172 114.8 172.668Z" fill="#06185C" stroke="#06185C" stroke-width="0.333333"/>
<path d="M67.9385 174.923C68.6304 173.923 69.9757 174.026 71.0391 173.962C75.7541 173.917 80.4691 173.757 85.1841 173.846C84.4923 178.818 82.596 183.539 80.6485 188.139C76.7984 188.331 72.9354 188.1 69.0916 188.421C66.8174 188.632 64.5368 188.504 62.2754 188.228C62.7751 186.704 63.3132 185.198 63.7296 183.654C63.7745 183.481 63.8641 183.142 63.909 182.975C65.8309 180.592 66.2921 177.447 67.9385 174.923Z" fill="#3784BF" stroke="#3784BF" stroke-width="0.333333"/>
<path d="M134.518 175.064L134.89 174.987C134.704 185.602 135.153 196.217 135.447 206.819C135.262 212.944 135.979 219.043 136.242 225.154C135.672 225.09 134.544 224.962 133.98 224.898C132.34 221.445 131.482 217.697 130.303 214.078C128.746 209.247 127.196 204.424 125.723 199.568C126.331 196.518 126.959 193.475 127.702 190.464C128.926 185.448 131.008 180.701 132.276 175.698C133.019 175.48 133.762 175.256 134.518 175.064Z" fill="#000239" stroke="#000239" stroke-width="0.333333"/>
<path d="M197.569 175.076C199.157 174.852 199.1 177.844 197.62 177.876C197.223 176.973 196.909 175.941 197.569 175.076Z" fill="#0D1B5F" stroke="#0D1B5F" stroke-width="0.333333"/>
<path d="M201.996 175.211C202.335 175.211 203.008 175.211 203.341 175.211C203.334 176.089 203.328 176.966 203.322 177.844C201.554 178.267 201.778 176.377 201.996 175.211Z" fill="#060F72" stroke="#060F72" stroke-width="0.333333"/>
<path d="M207.134 175.179C207.524 175.179 208.3 175.173 208.69 175.173C208.658 175.999 208.62 176.825 208.582 177.652C208.216 177.645 207.492 177.639 207.134 177.633C207.127 176.813 207.127 175.999 207.134 175.179Z" fill="#000678" stroke="#000678" stroke-width="0.333333"/>
<path d="M212.194 175.076C212.559 175.083 213.296 175.102 213.661 175.108C213.642 175.967 213.623 176.825 213.61 177.69C213.283 177.684 212.636 177.671 212.31 177.658C212.265 176.793 212.226 175.935 212.194 175.076Z" fill="#000883" stroke="#000883" stroke-width="0.333333"/>
<path d="M75.3634 178.106C77.8939 178.958 76.2347 181.559 75.0239 182.86C74.5882 182.661 73.7234 182.264 73.2942 182.066C73.1725 180.387 74.1782 179.151 75.3634 178.106Z" fill="#FFFCFA" stroke="#FFFCFA" stroke-width="0.333333"/>
<path d="M197.05 180.253C198.177 180.246 198.44 181.162 198.485 182.136C198.094 182.143 197.313 182.143 196.922 182.149C196.96 181.508 196.999 180.881 197.05 180.253Z" fill="#220154" stroke="#220154" stroke-width="0.333333"/>
<path d="M201.598 180.483C202.239 180.445 202.873 180.406 203.52 180.374C203.501 180.97 203.488 181.572 203.475 182.174C202.822 182.149 202.169 182.123 201.521 182.098C201.547 181.559 201.573 181.021 201.598 180.483Z" fill="#0E1B7A" stroke="#0E1B7A" stroke-width="0.333333"/>
<path d="M206.96 180.169C208.1 180.041 209.356 180.836 208.607 182.098C207.96 182.117 207.313 182.117 206.672 182.104C206.762 181.457 206.864 180.81 206.96 180.169Z" fill="#060F72" stroke="#060F72" stroke-width="0.333333"/>
<path d="M212.284 180.368C212.675 180.336 213.456 180.259 213.847 180.221C213.828 180.881 213.809 181.547 213.789 182.213C213.392 182.194 212.604 182.162 212.207 182.149C212.226 181.553 212.252 180.957 212.284 180.368Z" fill="#04085D" stroke="#04085D" stroke-width="0.333333"/>
<path d="M40.0771 185.487C41.2751 184.609 42.6012 183.731 44.1451 183.693C47.8671 183.526 51.5956 183.795 55.2792 184.333C55.1959 185.717 55.0806 187.101 54.9525 188.485C50.9421 188.222 46.9639 187.645 42.9792 187.127C42.0182 186.569 41.0573 186.005 40.0771 185.487Z" fill="#FF9A47" stroke="#FF9A47" stroke-width="0.333333"/>
<path d="M55.2798 184.333C55.2927 184.148 55.3183 183.77 55.3311 183.584C58.1306 183.469 60.9302 183.578 63.7297 183.654C63.3133 185.198 62.7752 186.704 62.2755 188.228C59.8347 188.331 57.4003 188.696 54.9531 188.485C55.0812 187.101 55.1966 185.717 55.2798 184.333Z" fill="#FDFEFE" stroke="#FDFEFE" stroke-width="0.333333"/>
<path d="M39.0908 186.524C39.3343 186.262 39.8275 185.743 40.0774 185.487C41.0575 186.005 42.0185 186.569 42.9794 187.127C42.6207 187.203 41.8904 187.351 41.5252 187.421C46.9833 188.991 52.6721 189.446 58.2583 190.291C58.6619 190.503 59.4563 190.932 59.8535 191.15C59.1232 191.335 58.7068 191.81 58.5979 192.565C57.4127 192.649 56.2275 192.732 55.0424 192.796C49.8405 193.02 44.6322 192.975 39.4368 192.738C39.4816 191.073 39.8852 189.452 40.6988 187.998C40.1543 187.511 39.6161 187.018 39.0908 186.524Z" fill="#FD7740" stroke="#FD7740" stroke-width="0.333333"/>
<path d="M38.5654 185.98C38.6936 186.114 38.9562 186.39 39.0907 186.524C39.6161 187.018 40.1542 187.511 40.6987 187.998C39.8851 189.452 39.4815 191.073 39.4367 192.738C39.2637 192.732 38.9306 192.719 38.764 192.706C38.8409 190.464 38.6551 188.222 38.5654 185.98Z" fill="#F7C48A" stroke="#F7C48A" stroke-width="0.333333"/>
<path d="M41.5254 187.421C41.8905 187.351 42.6209 187.203 42.9796 187.126C46.9643 187.645 50.9426 188.222 54.9529 188.485C57.4001 188.696 59.8345 188.331 62.2752 188.228C64.5366 188.504 66.8173 188.632 69.0915 188.421C72.9352 188.1 76.7982 188.331 80.6484 188.139C80.469 189.138 80.2896 190.137 80.1102 191.143C73.358 190.9 66.593 191.175 59.8537 191.15C59.4565 190.932 58.6621 190.503 58.2585 190.291C52.6723 189.446 46.9835 188.991 41.5254 187.421Z" fill="#EF444A" stroke="#EF444A" stroke-width="0.333333"/>
<path d="M80.6485 188.139C82.3461 188.177 84.0374 188.299 85.7286 188.478C85.5621 189.298 85.6774 190.234 85.2482 190.983C83.5441 191.207 81.8208 191.162 80.1104 191.143C80.2897 190.137 80.4691 189.138 80.6485 188.139Z" fill="#F85A56" stroke="#F85A56" stroke-width="0.333333"/>
<path d="M55.042 192.796C57.7391 192.405 60.6347 193.155 63.2036 192.226C63.2869 192.341 63.4406 192.572 63.5175 192.693C64.9909 192.809 66.4644 193.001 67.9058 193.353C67.1434 193.315 66.3811 193.296 65.6187 193.302C56.6948 193.155 47.7645 193.469 38.847 193.078C38.8727 194.084 38.9111 195.089 38.9623 196.095C38.7061 194.981 38.5716 193.84 38.7637 192.706C38.9303 192.719 39.2634 192.732 39.4364 192.738C44.6319 192.975 49.8402 193.02 55.042 192.796Z" fill="#6C648F" stroke="#6C648F" stroke-width="0.333333"/>
<path d="M38.8477 193.078C47.7652 193.469 56.6955 193.155 65.6194 193.302C64.7353 193.68 63.8641 194.09 62.9928 194.5C62.9608 194.808 62.9031 195.429 62.8711 195.736C63.6719 195.929 64.4662 196.134 65.267 196.332C64.5816 196.505 63.9025 196.697 63.2234 196.902L63.1209 197.178C62.5828 198.792 62.0895 200.471 60.9877 201.803C60.5072 202.329 60.0075 202.847 59.5078 203.366C55.8178 204.526 51.8203 204.334 48.0086 203.981C43.71 203.501 40.2058 200.15 38.963 196.095C38.9117 195.089 38.8733 194.084 38.8477 193.078Z" fill="#00014F" stroke="#00014F" stroke-width="0.333333"/>
<path d="M65.6194 193.302C66.3817 193.296 67.1441 193.315 67.9064 193.353C70.1102 194.135 72.4613 195.077 73.9219 196.999C74.8956 199.145 74.5113 201.611 74.5945 203.905C74.1141 203.161 73.6144 202.438 73.1083 201.72C72.9353 204.359 72.7431 206.999 72.788 209.651C72.6278 207.044 72.2627 204.462 71.8975 201.887C70.392 202.271 68.8866 202.655 67.3811 203.033C67.1889 200.477 66.2728 197.127 63.1209 197.178L63.2234 196.903C63.9025 196.698 64.5816 196.505 65.267 196.332C64.4662 196.134 63.6719 195.929 62.8711 195.737C62.9031 195.429 62.9608 194.808 62.9928 194.5C63.8641 194.09 64.7353 193.68 65.6194 193.302Z" fill="#0D146C" stroke="#0D146C" stroke-width="0.333333"/>
<path d="M260.811 196.371C261.573 196.563 262.336 196.755 263.104 196.96L263.252 196.999C265.468 199.792 267.691 202.585 269.914 205.378C270.465 206.275 271.663 207.319 270.369 208.395C270.85 208.434 271.811 208.511 272.291 208.549C271.919 209.664 271.58 210.785 271.183 211.893C271.138 211.65 271.055 211.163 271.01 210.919C270.875 210.17 270.491 209.721 269.844 209.568C269.53 209.818 268.889 210.311 268.575 210.561C263.617 206.877 259.376 202.361 254.892 198.145C255.744 197.646 256.602 197.146 257.467 196.653C258.063 196.992 258.671 197.338 259.28 197.691C259.786 197.242 260.298 196.806 260.811 196.371Z" fill="#000C56" stroke="#000C56" stroke-width="0.333333"/>
<path d="M63.1206 197.178C66.2725 197.127 67.1886 200.477 67.3807 203.033C67.3231 204.033 67.227 205.026 67.1373 206.025C65.7536 213.162 65.1001 220.458 62.8259 227.396C61.3204 225.096 62.3454 222.252 62.0315 219.702C61.4934 213.745 61.6984 207.748 60.9873 201.803C62.0892 200.471 62.5825 198.792 63.1206 197.178Z" fill="#1B1474" stroke="#1B1474" stroke-width="0.333333"/>
<path d="M121.258 225.026C123.32 216.666 123.974 208.004 125.723 199.567C127.196 204.423 128.746 209.247 130.303 214.078C131.482 217.697 132.34 221.445 133.98 224.898C134.109 225.186 134.365 225.75 134.493 226.038C134.346 226.352 134.051 226.98 133.904 227.294C131.911 227.921 129.361 227.659 128.067 229.593C126.363 229.632 124.659 229.613 122.955 229.613C122.814 228.876 122.661 228.146 122.513 227.415C122.129 227.23 121.373 226.852 120.995 226.659C120.905 226.403 120.732 225.884 120.643 225.622L121.258 225.026Z" fill="#FEFFFE" stroke="#FEFFFE" stroke-width="0.333333"/>
<path d="M59.5072 203.366C60.0069 202.847 60.5066 202.329 60.9871 201.803C61.6982 207.748 61.4932 213.744 62.0313 219.702C62.3452 222.252 61.3202 225.096 62.8257 227.396C62.9089 227.441 63.0691 227.524 63.1524 227.563C65.5035 228.645 67.9699 229.555 70.59 229.683C71.0769 228.812 71.5574 227.941 72.0827 227.095L73.1782 227.166C73.5818 227.242 74.3954 227.383 74.8054 227.454C76.5222 227.749 78.5274 227.704 79.4371 229.485C90.7569 229.626 102.096 229.696 113.409 229.568C114.844 227.371 117.657 227.883 119.643 226.653C119.796 226.39 120.11 225.859 120.264 225.59C120.36 225.602 120.552 225.615 120.642 225.622C120.732 225.884 120.905 226.403 120.994 226.659C121.372 226.852 122.128 227.23 122.513 227.415C122.66 228.146 122.814 228.876 122.955 229.613C124.659 229.613 126.363 229.632 128.067 229.594C129.361 227.659 131.911 227.921 133.903 227.294C134.813 227.069 135.774 226.935 136.703 227.178L137.029 227.934C137.401 228.761 137.696 229.619 137.939 230.497C134.749 230.369 131.526 230.26 128.4 231.022C111.443 231.272 94.4661 231.515 77.5024 231.342C74.1519 231.24 70.7886 231.528 67.451 231.137C63.1396 230.529 58.7641 231.093 54.4463 230.49C56.445 230.119 58.4246 229.658 60.3849 229.126C59.8852 224.078 59.1933 219.042 59.2382 213.956C59.2894 210.432 58.8025 206.839 59.5072 203.366Z" fill="#0F0D63" stroke="#0F0D63" stroke-width="0.333333"/>
<path d="M67.3811 203.033C68.8866 202.655 70.3921 202.271 71.8975 201.886C72.2627 204.462 72.6279 207.044 72.788 209.651C73.1852 214.308 73.6593 218.966 73.8835 223.636C74.1077 224.846 73.2493 225.775 72.7624 226.781C71.6029 225.532 70.9558 223.937 70.6483 222.284C69.4696 216.864 67.7847 211.541 67.1377 206.025C67.2274 205.026 67.3235 204.033 67.3811 203.033Z" fill="#000347" stroke="#000347" stroke-width="0.333333"/>
<path d="M73.1077 201.72C73.6138 202.437 74.1134 203.161 74.5939 203.905C74.8694 211.746 74.8437 219.606 74.8053 227.454C74.3953 227.383 73.5817 227.242 73.1781 227.166C73.0692 227.07 72.8642 226.877 72.7617 226.781C73.2486 225.775 74.107 224.847 73.8828 223.636C73.6586 218.966 73.1845 214.308 72.7873 209.651C72.7425 206.999 72.9347 204.359 73.1077 201.72Z" fill="#2C157C" stroke="#2C157C" stroke-width="0.333333"/>
<path d="M33.2416 206.14C33.6965 205.032 34.5037 203.674 35.9259 204.039C37.5274 205.045 38.8151 206.589 39.5134 208.338C39.1738 210.817 39.3596 213.303 39.8913 215.743C39.8593 217.96 39.6351 220.17 39.507 222.393C38.0655 219.875 36.5152 217.39 34.2474 215.532C34.9073 217.921 34.7663 220.42 34.9713 222.867C32.9534 222.816 30.929 222.809 28.911 222.784C28.7509 221.663 28.5971 220.548 28.4434 219.427C29.9873 217.838 31.2685 215.929 31.134 213.61C32.0501 213.969 32.9598 214.334 33.863 214.712C31.6785 212.342 32.2102 208.908 33.2416 206.14Z" fill="#089AC2" stroke="#089AC2" stroke-width="0.333333"/>
<path d="M160.791 206.89C162.392 204.135 165.8 207.178 166.415 209.106C164.974 212.579 165.775 216.378 165.461 220.01C163.039 219.094 161.514 216.422 158.862 216.166C158.958 213.027 159.119 209.632 160.791 206.89Z" fill="#13B8D5" stroke="#13B8D5" stroke-width="0.333333"/>
<path d="M62.8262 227.396C65.1004 220.458 65.7538 213.161 67.1376 206.025C67.7846 211.541 69.4695 216.864 70.6482 222.284C70.9557 223.937 71.6027 225.532 72.7623 226.781C72.8648 226.877 73.0698 227.069 73.1787 227.166L72.0832 227.095C71.5579 227.941 71.0774 228.812 70.5905 229.683C67.9704 229.555 65.504 228.645 63.1529 227.563C63.0696 227.524 62.9095 227.441 62.8262 227.396Z" fill="#FDFDFC" stroke="#FDFDFC" stroke-width="0.333333"/>
<path d="M135.447 206.819C136.293 213.572 136.107 220.401 136.703 227.178C135.774 226.935 134.813 227.069 133.903 227.294C134.051 226.98 134.345 226.352 134.493 226.038C134.365 225.75 134.108 225.186 133.98 224.898C134.544 224.962 135.671 225.09 136.242 225.154C135.979 219.042 135.261 212.944 135.447 206.819Z" fill="#8888A7" stroke="#8888A7" stroke-width="0.333333"/>
<path d="M41.1409 211.496C44.1967 210.163 46.8553 208.011 50.0969 207.095C50.7375 208.453 51.8138 209.875 51.2564 211.464C50.5773 213.949 49.1423 216.14 48.0789 218.472C48.4633 218.882 48.8541 219.299 49.2384 219.715C48.9117 220.971 48.5786 222.226 48.143 223.45C45.4331 224.001 43.2998 225.807 41.205 227.492C41.3203 222.399 40.9103 217.313 41.1089 212.22L41.1409 211.496Z" fill="#0587B3" stroke="#0587B3" stroke-width="0.333333"/>
<path d="M170.784 210.753C172.328 209.574 174.019 208.607 175.749 207.742C176.736 209.901 176.889 212.329 176.659 214.661C176.319 217.3 174.244 219.331 172.065 220.651C171.924 220.311 171.636 219.632 171.489 219.292C172.828 218.421 174.026 217.326 174.833 215.936C173.936 213.886 172.411 212.246 170.784 210.753Z" fill="#0191B3" stroke="#0191B3" stroke-width="0.333333"/>
<path d="M272.291 208.549L272.593 207.864C273.669 208.152 274.764 208.434 275.853 208.716C272.913 212.348 272.17 217.466 268.531 220.574C268.416 219.203 268.659 217.844 269.204 216.589C269.729 214.968 270.555 213.469 271.183 211.893C271.58 210.785 271.92 209.664 272.291 208.549Z" fill="#220154" stroke="#220154" stroke-width="0.333333"/>
<path d="M39.892 215.743C39.3602 213.302 39.1745 210.817 39.514 208.338C39.9816 209.657 40.5966 210.919 41.1091 212.22C40.9105 217.313 41.3205 222.399 41.2052 227.492C43.3001 225.807 45.4334 224.001 48.1432 223.45C46.4391 225.859 43.5691 227.018 41.5448 229.12C40.981 228.818 40.4301 228.492 39.8855 228.165C40.2059 224.033 40.5582 219.85 39.892 215.743Z" fill="#0C5A8E" stroke="#0C5A8E" stroke-width="0.333333"/>
<path d="M165.461 220.01C165.775 216.378 164.974 212.579 166.415 209.106C167.069 209.984 167.729 210.996 167.376 212.156C166.979 215.148 166.96 218.171 167.267 221.176L166.755 220.798C166.409 217.973 166.55 215.116 166.332 212.284C165.935 215.609 166.005 218.966 165.922 222.31C165.711 222.29 165.294 222.258 165.089 222.246C164.788 222.214 164.186 222.156 163.885 222.124L163.584 221.701C162.712 220.317 161.47 219.248 160.214 218.235C159.676 217.601 159.227 216.909 158.862 216.166C161.514 216.422 163.039 219.094 165.461 220.01Z" fill="#0E8EB2" stroke="#0E8EB2" stroke-width="0.333333"/>
<path d="M269.844 209.568C270.491 209.721 270.875 210.17 271.01 210.919C271.055 211.163 271.138 211.65 271.183 211.893C270.555 213.469 269.728 214.968 269.203 216.589C269.383 214.251 269.094 211.816 269.844 209.568Z" fill="#D693B2" stroke="#D693B2" stroke-width="0.333333"/>
<path d="M22.5375 213.949C22.5439 212.976 22.5182 211.368 23.8123 211.259C26.4197 211.291 28.7964 212.585 31.1347 213.61C31.2692 215.929 29.9879 217.838 28.444 219.427C28.5978 220.548 28.7515 221.663 28.9117 222.784L28.3607 222.777C25.8047 220.394 22.3517 217.838 22.5375 213.949Z" fill="#13A3CA" stroke="#13A3CA" stroke-width="0.333333"/>
<path d="M167.377 212.156C168.607 211.938 169.76 211.47 170.785 210.753C172.412 212.246 173.937 213.886 174.833 215.936C172.418 217.832 170.189 220.068 167.268 221.176C166.96 218.171 166.979 215.148 167.377 212.156Z" fill="#09A5C4" stroke="#09A5C4" stroke-width="0.333333"/>
<path d="M165.922 222.31C166.005 218.966 165.935 215.609 166.332 212.284C166.55 215.115 166.409 217.973 166.755 220.798L167.267 221.176C170.188 220.068 172.418 217.832 174.833 215.936C174.026 217.326 172.828 218.421 171.489 219.292C169.996 220.324 168.471 221.317 166.96 222.323C166.889 224.776 166.889 227.236 166.947 229.69C169.471 229.671 172.001 229.651 174.532 229.664H175.422C178.004 229.805 180.599 229.843 183.148 229.344L183.257 229.664C174.596 231.881 165.544 230.157 156.742 231.099C147.299 231.182 137.837 231.272 128.4 231.022C131.527 230.26 134.749 230.369 137.939 230.497C137.696 229.619 137.401 228.761 137.03 227.934C137.196 228.319 137.529 229.081 137.696 229.466C142.404 229.517 147.132 229.703 151.834 229.363C152.546 229.293 153.257 229.235 153.974 229.196C155.07 229.286 156.146 229.491 157.235 229.632C160.252 229.779 163.27 229.619 166.287 229.709C166.255 227.236 166.037 224.776 165.922 222.31Z" fill="#091A57" stroke="#091A57" stroke-width="0.333333"/>
<path d="M34.2474 215.532C36.5152 217.39 38.0655 219.875 39.5069 222.393C39.635 220.17 39.8592 217.96 39.8913 215.743C40.5575 219.85 40.2052 224.033 39.8849 228.165C37.4569 226.653 35.3044 224.712 32.6778 223.521C34.952 225.474 37.5402 227.127 39.257 229.651C35.5734 229.869 31.8899 229.76 28.2063 229.626C26.9699 227.576 26.6688 224.661 28.36 222.777L28.9109 222.784C30.9289 222.809 32.9533 222.816 34.9713 222.867C34.7663 220.42 34.9072 217.922 34.2474 215.532Z" fill="#0888AD" stroke="#0888AD" stroke-width="0.333333"/>
<path d="M160.214 218.235C161.469 219.248 162.712 220.317 163.584 221.701C162.04 221.016 160.842 219.805 160.214 218.235Z" fill="#39B8DA" stroke="#39B8DA" stroke-width="0.333333"/>
<path d="M49.2388 219.715C50.9749 220.439 53.1338 220.811 54.1716 222.559C55.2927 224.641 54.9212 227.121 54.902 229.389C53.8193 229.491 52.743 229.651 51.6604 229.766C48.2971 229.421 44.8634 229.895 41.5449 229.119C43.5693 227.018 46.4393 225.859 48.1434 223.45C48.579 222.226 48.9121 220.971 49.2388 219.715Z" fill="#07A0BA" stroke="#07A0BA" stroke-width="0.333333"/>
<path d="M166.96 222.322C168.472 221.317 169.996 220.324 171.489 219.292C171.636 219.632 171.925 220.311 172.066 220.65C171.713 221.707 170.823 222.796 171.393 223.956C172.36 225.269 174.135 225.237 175.583 225.493C175.128 226.852 174.833 228.261 174.532 229.664C172.002 229.651 169.471 229.67 166.947 229.69C166.889 227.236 166.889 224.776 166.96 222.322Z" fill="#14B5CF" stroke="#14B5CF" stroke-width="0.333333"/>
<path d="M150.38 221.233C150.444 220.023 151.975 220.471 152.693 220.811C154.8 222.111 156.645 223.783 158.606 225.289C158.125 226.73 157.651 228.171 157.235 229.632C156.146 229.491 155.069 229.286 153.974 229.196C152.667 226.589 151.514 223.911 150.38 221.233Z" fill="#1EBCD4" stroke="#1EBCD4" stroke-width="0.333333"/>
<path d="M150.381 221.233C151.515 223.911 152.668 226.589 153.975 229.196C153.257 229.235 152.546 229.292 151.835 229.363C149.644 227.441 150.214 223.866 150.381 221.233Z" fill="#069BC3" stroke="#069BC3" stroke-width="0.333333"/>
<path d="M178.977 223.36C180.464 222.207 182.225 221.515 184.096 221.323C184.384 224.097 184.173 226.903 183.481 229.607L183.257 229.664L183.148 229.344C180.598 229.844 178.004 229.805 175.422 229.664C177.331 228.095 179.778 226.154 178.977 223.36Z" fill="#027999" stroke="#027999" stroke-width="0.333333"/>
<path d="M165.089 222.246C165.294 222.258 165.711 222.29 165.922 222.31C166.038 224.776 166.255 227.236 166.287 229.709C163.27 229.619 160.253 229.779 157.235 229.632C157.652 228.171 158.126 226.73 158.606 225.289C161.226 225.961 163.744 224.443 165.089 222.246Z" fill="#10B1CC" stroke="#10B1CC" stroke-width="0.333333"/>
<path d="M32.6784 223.521C35.305 224.712 37.4575 226.653 39.8854 228.165C40.43 228.492 40.9809 228.818 41.5446 229.12C44.8631 229.895 48.2968 229.421 51.6601 229.767C46.7081 231.266 41.3845 230.113 36.33 231.163C32.3453 231.682 28.335 231.041 24.3375 231.176C22.2042 231.099 19.9684 231.503 17.9248 230.689C18.4117 230.036 19.0395 229.722 19.8146 229.735C22.6078 229.658 25.4073 229.606 28.2068 229.626C31.8904 229.76 35.574 229.869 39.2576 229.651C37.5407 227.127 34.9526 225.474 32.6784 223.521Z" fill="#0D1B5F" stroke="#0D1B5F" stroke-width="0.333333"/>
<path d="M175.583 225.494C176.755 224.847 177.87 224.11 178.978 223.36C179.779 226.153 177.332 228.095 175.423 229.664H174.532C174.833 228.261 175.128 226.852 175.583 225.494Z" fill="#0396B1" stroke="#0396B1" stroke-width="0.333333"/>
<path d="M221.003 228.165C223.72 227.403 226.545 227.044 229.37 227.076C229.466 227.87 229.639 228.645 229.889 229.408C247.41 229.741 264.944 229.517 282.471 229.632C291.927 229.715 301.408 229.369 310.851 229.818C311.953 231.567 309.121 231.138 308.192 231.349C262.266 231.413 216.34 231.298 170.413 231.349C165.852 231.362 161.291 231.394 156.742 231.099C165.544 230.157 174.596 231.881 183.258 229.664L183.482 229.606C195.667 229.44 207.883 229.6 220.081 229.613C220.388 229.126 220.696 228.645 221.003 228.165Z" fill="#141A64" stroke="#141A64" stroke-width="0.333333"/>
<path d="M54.9018 229.389C56.7276 229.203 58.5598 229.184 60.3855 229.126C58.4252 229.658 56.4457 230.119 54.447 230.491C58.7648 231.093 63.1402 230.529 67.4516 231.138C57.0799 231.208 46.7018 231.548 36.3301 231.163C41.3846 230.113 46.7082 231.266 51.6602 229.767C52.7429 229.651 53.8191 229.491 54.9018 229.389Z" fill="#1E2F74" stroke="#1E2F74" stroke-width="0.333333"/>
</g>
<defs>
<clipPath id="clip0_604_10566">
<rect width="328" height="328" fill="white"/>
</clipPath>
</defs>
</svg>
